<?xml version="1.0" standalone="no"?><!DOCTYPE svg PUBLIC "-//W3C//DTD SVG 1.1//EN" "http://www.w3.org/Graphics/SVG/1.1/DTD/svg11.dtd"><svg t="1648803521320" class="icon" viewBox="0 0 1024 1024" version="1.1" xmlns="http://www.w3.org/2000/svg" p-id="4268" xmlns:xlink="http://www.w3.org/1999/xlink" width="200" height="200"><defs><style type="text/css">@font-face { font-family: feedback-iconfont; src: url("//at.alicdn.com/t/font_1031158_u69w8yhxdu.woff2?t=1630033759944") format("woff2"), url("//at.alicdn.com/t/font_1031158_u69w8yhxdu.woff?t=1630033759944") format("woff"), url("//at.alicdn.com/t/font_1031158_u69w8yhxdu.ttf?t=1630033759944") format("truetype"); }
</style></defs><path d="M914.610495 513.48433c0 220.592147-178.82422 399.416367-399.416367 399.416367-220.582752 0-399.406972-178.82422-399.406972-399.416367 0-220.582752 178.82422-399.416367 399.406972-399.416367 220.592147 0 399.416367 178.82422 399.416367 399.416367" fill="#F5F0FF" p-id="4269"></path><path d="M177.255339 345.623486a11.310972 11.310972 0 0 1-11.310972-11.310972v-25.722129a11.310972 11.310972 0 1 1 22.621945 0v25.722129c0 6.247339-5.063633 11.310972-11.310973 11.310972M177.255339 410.426716a11.310972 11.310972 0 0 1-11.310972-11.310973v-25.722128a11.310972 11.310972 0 1 1 22.621945 0v25.722128c0 6.247339-5.063633 11.310972-11.310973 11.310973M169.025761 353.853064c0 6.247339-5.063633 11.310972-11.310972 11.310973H131.992661a11.310972 11.310972 0 1 1 0-22.621945h25.722128c6.247339 0 11.310972 5.063633 11.310972 11.310972M233.828991 353.853064c0 6.247339-5.054239 11.310972-11.301578 11.310973h-25.722129a11.310972 11.310972 0 1 1 0-22.621945h25.722129c6.247339 0 11.310972 5.063633 11.310972 11.310972" fill="#7BD721" p-id="4270"></path><path d="M55.10811 259.400807a15.256661 15.256661 0 1 1-30.503927 0 15.256661 15.256661 0 0 1 30.503927 0M367.606606 350.161028a15.266055 15.266055 0 1 1-26.445505 15.266055 15.266055 15.266055 0 0 1 26.445505-15.266055" fill="#5C3290" p-id="4271"></path><path d="M278.34011 215.434569a16.975853 16.975853 0 1 1 0-33.951707 16.975853 16.975853 0 0 1 0 33.951707m0-49.377468a32.401615 32.401615 0 1 0 0 64.803229 32.401615 32.401615 0 0 0 0-64.803229" fill="#00B1FF" p-id="4272"></path><path d="M782.636624 325.988991c0 104.523156-84.728954 189.25211-189.25211 189.25211S404.132404 430.512147 404.132404 325.988991s84.728954-189.25211 189.25211-189.25211 189.25211 84.738349 189.25211 189.25211" fill="#FFB600" p-id="4273"></path><path d="M567.906642 138.493651c-92.470018 12.447706-163.774239 91.624514-163.774238 187.49534 0 95.88022 71.30422 175.047633 163.774238 187.495339 92.470018-12.447706 163.774239-91.615119 163.774239-187.495339 0-95.870826-71.30422-175.047633-163.774239-187.49534" fill="#FFD500" p-id="4274"></path><path d="M807.588404 888.296514H379.171229a73.192514 73.192514 0 0 1-73.183119-73.18312c0-153.196037 124.17644-277.381872 277.372477-277.381871h20.047853c153.186642 0 277.372477 124.195229 277.372477 277.372477a73.183119 73.183119 0 0 1-73.183119 73.192514" fill="#F4731C" p-id="4275"></path><path d="M828.848147 815.104c0-147.83178-115.665028-268.616807-261.430019-276.883963-145.764991 8.267156-261.430018 129.052183-261.430018 276.883963a73.183119 73.183119 0 0 0 73.183119 73.192514h376.484404a73.183119 73.183119 0 0 0 73.183119-73.18312" fill="#FF781D" p-id="4276"></path></svg>