<?xml version="1.0" standalone="no"?><!DOCTYPE svg PUBLIC "-//W3C//DTD SVG 1.1//EN" "http://www.w3.org/Graphics/SVG/1.1/DTD/svg11.dtd"><svg t="1648803550435" class="icon" viewBox="0 0 1024 1024" version="1.1" xmlns="http://www.w3.org/2000/svg" p-id="5222" xmlns:xlink="http://www.w3.org/1999/xlink" width="200" height="200"><defs><style type="text/css">@font-face { font-family: feedback-iconfont; src: url("//at.alicdn.com/t/font_1031158_u69w8yhxdu.woff2?t=1630033759944") format("woff2"), url("//at.alicdn.com/t/font_1031158_u69w8yhxdu.woff?t=1630033759944") format("woff"), url("//at.alicdn.com/t/font_1031158_u69w8yhxdu.ttf?t=1630033759944") format("truetype"); }
</style></defs><path d="M881.57945 507.077284c0 220.592147-178.833615 399.416367-399.425762 399.416367-220.582752 0-399.406972-178.82422-399.406972-399.416367 0-220.582752 178.82422-399.416367 399.406972-399.416367 220.592147 0 399.416367 178.82422 399.416367 399.416367" fill="#F5F0FF" p-id="5223"></path><path d="M953.935853 562.316917H269.819303a33.726239 33.726239 0 0 0-33.716844 33.726239v273.004037a33.726239 33.726239 0 0 0 33.716844 33.716844h269.067743c16.318239 22.772257 42.838899 37.737688 72.995229 37.737688 30.146936 0 56.676991-14.965431 72.99523-37.737688h269.058348a33.726239 33.726239 0 0 0 33.726239-33.716844v-273.004037a33.726239 33.726239 0 0 0-33.726239-33.726239" fill="#FFB600" p-id="5224"></path><path d="M953.935853 562.316917h-684.107156a33.726239 33.726239 0 0 0-33.726238 33.726239v224.81967a33.726239 33.726239 0 0 0 33.726238 33.726238h269.058349c16.308844 22.772257 42.838899 37.737688 72.995229 37.737688s56.676991-14.965431 72.99523-37.737688h269.058348a33.726239 33.726239 0 0 0 33.726239-33.726238V596.043156a33.726239 33.726239 0 0 0-33.726239-33.726239" fill="#FFD500" p-id="5225"></path><path d="M951.690569 324.636183c-37.408881-17.013431-149.814018-49.095633-335.740477 57.381578a8.295339 8.295339 0 0 1-8.154422 0c-185.917064-106.477211-298.322202-74.404404-335.731083-57.381578-8.642936 3.926899-13.979009 12.626202-13.979009 22.114643v402.046825a24.359927 24.359927 0 0 0 28.681394 23.955964c173.845138-31.603083 297.993394 31.349431 321.197799 44.323229a7.797431 7.797431 0 0 0 7.835009 0c23.204404-12.973798 147.343266-75.926312 321.197798-44.313835a24.359927 24.359927 0 0 0 28.672-23.965358V346.750826c0-9.48844-5.345468-18.187743-13.979009-22.114643" fill="#00B1FF" p-id="5226"></path><path d="M547.069651 478.931376a32.598899 32.598899 0 0 1-36.234568 28.512294L345.435596 487.668257a32.598899 32.598899 0 1 1 7.73167-64.728074L518.576147 442.706202a32.598899 32.598899 0 0 1 28.502899 36.234569M682.510092 483.149505a32.598899 32.598899 0 0 0 36.234569 28.502899l165.399486-19.756624a32.608294 32.608294 0 0 0-7.73167-64.737468l-165.399486 19.756624a32.598899 32.598899 0 0 0-28.502899 36.234569M547.069651 622.638972a32.598899 32.598899 0 0 1-36.234568 28.5029L345.435596 631.385248a32.608294 32.608294 0 0 1 7.73167-64.737468L518.576147 586.404404a32.598899 32.598899 0 0 1 28.502899 36.234568M682.510092 626.847706a32.598899 32.598899 0 0 0 36.234569 28.5029l165.399486-19.756624a32.598899 32.598899 0 0 0-7.73167-64.737468l-165.399486 19.756624a32.598899 32.598899 0 0 0-28.502899 36.234568" fill="#FFFFFF" p-id="5227"></path><path d="M617.255927 135.947743a15.256661 15.256661 0 1 1-30.513321 0 15.256661 15.256661 0 0 1 30.513321 0" fill="#5C3290" p-id="5228"></path><path d="M475.709064 116.285064a16.975853 16.975853 0 1 1 0-33.951706 16.975853 16.975853 0 0 1 0 33.951706m0-49.377468a32.401615 32.401615 0 1 0 0 64.80323 32.401615 32.401615 0 0 0 0-64.80323" fill="#00B1FF" p-id="5229"></path><path d="M151.044697 158.832734a15.266055 15.266055 0 1 1 26.454899-15.247266 15.266055 15.266055 0 0 1-26.454899 15.247266" fill="#5C3290" p-id="5230"></path><path d="M292.67611 211.460697a11.310972 11.310972 0 0 1-11.310972-11.310972v-25.722129a11.310972 11.310972 0 1 1 22.621945 0v25.722129c0 6.247339-5.073028 11.310972-11.310973 11.310972M292.67611 276.263927a11.310972 11.310972 0 0 1-11.310972-11.310973v-25.722128a11.310972 11.310972 0 1 1 22.621945 0v25.722128c0 6.247339-5.073028 11.310972-11.310973 11.310973M284.446532 219.690275c0 6.247339-5.063633 11.310972-11.310972 11.310973h-25.722129a11.310972 11.310972 0 1 1 0-22.621945h25.722129c6.247339 0 11.310972 5.063633 11.310972 11.310972M349.249761 219.690275c0 6.247339-5.063633 11.310972-11.310972 11.310973h-25.722128a11.310972 11.310972 0 1 1 0-22.621945h25.722128c6.247339 0 11.310972 5.063633 11.310972 11.310972" fill="#7BD721" p-id="5231"></path></svg>