<?xml version="1.0" standalone="no"?><!DOCTYPE svg PUBLIC "-//W3C//DTD SVG 1.1//EN" "http://www.w3.org/Graphics/SVG/1.1/DTD/svg11.dtd"><svg t="1648803541252" class="icon" viewBox="0 0 1024 1024" version="1.1" xmlns="http://www.w3.org/2000/svg" p-id="4903" xmlns:xlink="http://www.w3.org/1999/xlink" width="200" height="200"><defs><style type="text/css">@font-face { font-family: feedback-iconfont; src: url("//at.alicdn.com/t/font_1031158_u69w8yhxdu.woff2?t=1630033759944") format("woff2"), url("//at.alicdn.com/t/font_1031158_u69w8yhxdu.woff?t=1630033759944") format("woff"), url("//at.alicdn.com/t/font_1031158_u69w8yhxdu.ttf?t=1630033759944") format("truetype"); }
</style></defs><path d="M869.817541 515.306862c0 220.582752-178.82422 399.416367-399.416367 399.416367-220.582752 0-399.406972-178.82422-399.406972-399.416367 0-220.592147 178.82422-399.416367 399.406972-399.416367 220.592147 0 399.416367 178.82422 399.416367 399.416367" fill="#F5F0FF" p-id="4904"></path><path d="M750.873835 215.885505H440.817908a23.27956 23.27956 0 0 0-23.279559 23.279559v64.868991a23.27956 23.27956 0 0 0 23.279559 23.270165h70.806312v207.900184h168.443303V327.30422h70.806312a23.27956 23.27956 0 0 0 23.279559-23.270165v-64.868991a23.27956 23.27956 0 0 0-23.279559-23.279559" fill="#0091F1" p-id="4905"></path><path d="M738.463706 304.034055v-64.868991a23.27956 23.27956 0 0 0-23.279559-23.279559H440.817908a23.27956 23.27956 0 0 0-23.279559 23.279559v64.868991a23.27956 23.27956 0 0 0 23.279559 23.27956h70.796918V535.204404h132.772403V327.313615h70.796918a23.27956 23.27956 0 0 0 23.279559-23.27956" fill="#00B1FF" p-id="4906"></path><path d="M855.631853 707.659156c0 143.472734-116.303853 259.785982-259.785981 259.785982-143.482128 0-259.785982-116.303853-259.785982-259.785982 0-143.472734 116.303853-259.785982 259.785982-259.785982 143.472734 0 259.785982 116.313248 259.785981 259.785982" fill="#FFB600" p-id="4907"></path><path d="M565.031927 449.752073C436.092477 464.999339 336.050495 574.614312 336.050495 707.659156c0 133.044844 100.032587 242.659817 228.981432 257.907083 128.948844-15.247266 228.981431-124.852844 228.981431-257.907083 0-133.044844-100.032587-242.659817-228.981431-257.907083" fill="#FFD500" p-id="4908"></path><path d="M595.845872 967.445138c143.472734 0 259.785982-116.303853 259.785981-259.785982 0-10.286972-0.657615-20.414239-1.822532-30.381798-37.671927 35.163596-90.121394 42.340991-132.462385 40.941211-35.75545-1.174312-69.866862-13.556257-99.797725-33.14378C512.657615 613.789358 339.751927 664.190826 339.751927 664.190826a260.885138 260.885138 0 0 0-3.692037 43.46833c0 143.472734 116.303853 259.785982 259.785982 259.785982" fill="#F4731C" p-id="4909"></path><path d="M569.53189 966.129908c131.118972-13.189872 233.472-123.875817 233.472-258.470752l-0.009395-0.385174c-27.281615 9.48844-56.273028 11.790092-81.647559 10.953981a172.886899 172.886899 0 0 1-15.472734-1.277651 269.481101 269.481101 0 0 1-37.15523 1.277651c-35.75545-1.183706-69.866862-13.556257-99.807119-33.162569-37.455853-24.519633-82.48367-34.62811-125.444697-37.361908-58.621651 3.382018-103.715229 16.496734-103.715229 16.496734a260.866349 260.866349 0 0 0-3.692037 43.458936c0 134.594936 102.353028 245.280881 233.472 258.470752" fill="#FF781D" p-id="4910"></path><path d="M481.84367 580.457688a29.23567 29.23567 0 1 1-58.480734 0 29.23567 29.23567 0 0 1 58.480734 0M588.161174 581.218642a29.245064 29.245064 0 1 1 13.302606 56.958826 29.245064 29.245064 0 0 1-13.302606-56.958826M674.336881 537.03633a29.245064 29.245064 0 1 1 13.302605 56.958826 29.245064 29.245064 0 0 1-13.302605-56.958826M537.562422 484.07956a29.245064 29.245064 0 1 1 13.312 56.949431 29.245064 29.245064 0 0 1-13.312-56.949431M725.818716 623.775706a29.245064 29.245064 0 1 1 13.312 56.958826 29.245064 29.245064 0 0 1-13.302606-56.958826" fill="#FFFFFF" p-id="4911"></path><path d="M279.486239 354.473101a11.310972 11.310972 0 0 1-11.320367-11.310973V317.44a11.310972 11.310972 0 1 1 22.621945 0v25.722128c0 6.247339-5.063633 11.310972-11.310973 11.310973M279.486239 419.27633a11.310972 11.310972 0 0 1-11.320367-11.301578v-25.722128a11.310972 11.310972 0 1 1 22.621945 0v25.722128c0 6.247339-5.063633 11.310972-11.310973 11.310973M271.256661 362.702679c0 6.247339-5.073028 11.310972-11.310973 11.310972h-25.722128a11.310972 11.310972 0 1 1 0-22.621945h25.722128c6.247339 0 11.310972 5.073028 11.310973 11.310973M336.05989 362.702679c0 6.247339-5.073028 11.310972-11.310973 11.310972H299.026789a11.310972 11.310972 0 1 1 0-22.621945h25.722128c6.247339 0 11.310972 5.073028 11.310973 11.310973" fill="#7BD721" p-id="4912"></path><path d="M138.061505 265.262972a16.975853 16.975853 0 1 1 0-33.951706 16.975853 16.975853 0 0 1 0 33.951706m0-49.377467a32.401615 32.401615 0 1 0 0 64.803229 32.401615 32.401615 0 0 0 0-64.803229" fill="#00B1FF" p-id="4913"></path><path d="M294.742899 244.454165a15.256661 15.256661 0 1 1-30.513321 0 15.256661 15.256661 0 0 1 30.513321 0" fill="#5C3290" p-id="4914"></path></svg>