<?xml version="1.0" standalone="no"?><!DOCTYPE svg PUBLIC "-//W3C//DTD SVG 1.1//EN" "http://www.w3.org/Graphics/SVG/1.1/DTD/svg11.dtd"><svg t="1648803512488" class="icon" viewBox="0 0 1024 1024" version="1.1" xmlns="http://www.w3.org/2000/svg" p-id="3953" xmlns:xlink="http://www.w3.org/1999/xlink" width="200" height="200"><defs><style type="text/css">@font-face { font-family: feedback-iconfont; src: url("//at.alicdn.com/t/font_1031158_u69w8yhxdu.woff2?t=1630033759944") format("woff2"), url("//at.alicdn.com/t/font_1031158_u69w8yhxdu.woff?t=1630033759944") format("woff"), url("//at.alicdn.com/t/font_1031158_u69w8yhxdu.ttf?t=1630033759944") format("truetype"); }
</style></defs><path d="M932.77945 512.093945c0 220.582752-178.833615 399.416367-399.425762 399.416367-220.582752 0-399.406972-178.82422-399.406972-399.416367 0-220.592147 178.82422-399.416367 399.406972-399.416367 220.592147 0 399.416367 178.82422 399.416367 399.416367" fill="#F5F0FF" p-id="3954"></path><path d="M644.490569 630.192147s77.467009 80.05989 26.699156 228.474128H602.844771s33.190752-187.467156-23.439266-228.474128h65.085064z" fill="#FFB600" p-id="3955"></path><path d="M614.550312 630.192147h-35.135413c56.630018 41.006972 23.429872 228.474128 23.429872 228.474128h38.404697c50.767853-148.414239-26.699156-228.474128-26.699156-228.474128" fill="#FFD500" p-id="3956"></path><path d="M586.864734 407.580183s-95.175633-106.157798-221.738275-112.921834c-6.811009-0.37578-12.598018 5.373651-12.598019 12.203449v135.844404c0 55.85967 16.910092 111.512661 52.919193 154.229431 40.753321 48.362862 110.094092 89.905321 224.378128 62.557945 0 0 275.343266 35.257541 306.589358-189.374239 0 0 1.427963-203.015046-11.611596-295.907816-1.935266-13.781725-18.948697-19.202349-28.39956-8.990532-17.417394 18.788991-46.709431 42.857688-90.825981 56.836697 0 0-193.338716 74.216514-218.713248 185.522495" fill="#6EC11D" p-id="3957"></path><path d="M586.864734 407.580183s-17.943486-19.972697-48.531963-43.139522c-7.637725 12.607413-13.39655 25.853651-16.553101 39.672954 0 0-68.842862-76.471193-167.165652-103.658863-1.202495 1.907083-2.085578 4.020844-2.085578 6.388257v135.863193c0 55.85967 16.910092 111.512661 52.919193 154.229431 24.839046 29.470532 60.491156 56.197872 110.263193 66.56a308.966165 308.966165 0 0 0 49.029871-7.468624s275.343266 35.257541 306.589358-189.374238c0 0 1.193101-172.633248-8.859009-272.346422a213.752954 213.752954 0 0 1-56.893064 27.760734s-193.338716 74.207119-218.713248 185.5131" fill="#7BD721" p-id="3958"></path><path d="M717.44822 849.882422h-167.034128a17.051009 17.051009 0 0 0-17.051009 17.051009v27.497688c0 9.422679 7.62833 17.051009 17.051009 17.051009h167.034128a17.051009 17.051009 0 0 0 17.051009-17.051009v-27.497688a17.060404 17.060404 0 0 0-17.051009-17.051009" fill="#F4731C" p-id="3959"></path><path d="M692.120661 850.211229H548.788844c-8.614752 0.854899-15.435156 7.891376-15.435156 16.722202v27.507083c0 9.413284 7.637725 17.051009 17.051009 17.051009h143.322422c8.624147-0.845505 15.44455-7.881982 15.444551-16.722202v-27.507082a17.060404 17.060404 0 0 0-17.051009-17.05101" fill="#FF781D" p-id="3960"></path><path d="M543.546716 224.218422a11.310972 11.310972 0 0 1-11.310973-11.310972v-25.722129a11.310972 11.310972 0 0 1 22.621945 0v25.722129c0 6.247339-5.073028 11.310972-11.310972 11.310972M543.546716 289.021651a11.310972 11.310972 0 0 1-11.310973-11.310972v-25.722129a11.310972 11.310972 0 0 1 22.621945 0v25.722129c0 6.247339-5.073028 11.310972-11.310972 11.310972M535.317138 232.448c0 6.247339-5.073028 11.310972-11.310973 11.310972H498.284037a11.310972 11.310972 0 1 1 0-22.621944h25.722128c6.247339 0 11.310972 5.073028 11.310973 11.310972M600.120367 232.448c0 6.247339-5.073028 11.310972-11.310973 11.310972h-25.722128a11.310972 11.310972 0 1 1 0-22.621944h25.722128c6.247339 0 11.310972 5.073028 11.310973 11.310972" fill="#FFD500" p-id="3961"></path><path d="M383.041761 208.275963a15.256661 15.256661 0 1 1-30.503926 0 15.256661 15.256661 0 0 1 30.503926 0M642.470752 166.958972a15.256661 15.256661 0 1 1-30.513321 0 15.256661 15.256661 0 0 1 30.513321 0" fill="#5C3290" p-id="3962"></path><path d="M456.478532 129.644037a16.975853 16.975853 0 1 1 0-33.942312 16.975853 16.975853 0 0 1 0 33.951706m0-49.377468a32.401615 32.401615 0 1 0-0.009394 64.793835 32.401615 32.401615 0 0 0 0-64.793835" fill="#00B1FF" p-id="3963"></path></svg>