<?xml version="1.0" standalone="no"?><!DOCTYPE svg PUBLIC "-//W3C//DTD SVG 1.1//EN" "http://www.w3.org/Graphics/SVG/1.1/DTD/svg11.dtd"><svg t="1648803530910" class="icon" viewBox="0 0 1024 1024" version="1.1" xmlns="http://www.w3.org/2000/svg" p-id="4585" xmlns:xlink="http://www.w3.org/1999/xlink" width="200" height="200"><defs><style type="text/css">@font-face { font-family: feedback-iconfont; src: url("//at.alicdn.com/t/font_1031158_u69w8yhxdu.woff2?t=1630033759944") format("woff2"), url("//at.alicdn.com/t/font_1031158_u69w8yhxdu.woff?t=1630033759944") format("woff"), url("//at.alicdn.com/t/font_1031158_u69w8yhxdu.ttf?t=1630033759944") format("truetype"); }
</style></defs><path d="M923.92044 517.805798c0 220.592147-178.82422 399.416367-399.416367 399.416367-220.582752 0-399.406972-178.82422-399.406972-399.416367 0-220.592147 178.82422-399.416367 399.406972-399.416367 220.592147 0 399.416367 178.82422 399.416367 399.416367" fill="#F5F0FF" p-id="4586"></path><path d="M778.333945 443.965064c0-139.977982-121.226569-251.650349-264.417468-235.764257-109.135853 12.109505-197.152881 100.615046-208.745688 209.826055-11.226422 105.584734 47.000661 198.731156 134.482202 240.207854v79.872a30.513321 30.513321 0 0 0 34.148991 30.287853l141.77233-17.004037a30.522716 30.522716 0 0 0 26.877651-30.297248v-62.858568c80.24778-38.047706 135.872587-119.554349 135.872587-214.269652" fill="#0091F1" p-id="4587"></path><path d="M711.40756 451.565211c0-128.704587-102.503339-233.396844-230.324844-237.088881-93.503413 24.425688-165.502826 105.565945-175.911927 203.541138-11.226422 105.594128 47.000661 198.731156 134.491596 240.217248v79.862605c0 16.957064 13.762936 30.203303 30.231487 30.34422l78.763449-9.460257a30.503927 30.503927 0 0 0 26.868257-30.287853v-62.849174c80.257174-38.047706 135.881982-119.563743 135.881982-214.279046" fill="#00B1FF" p-id="4588"></path><path d="M621.29556 848.106862L476.206972 864.481468a32.448587 32.448587 0 1 1-7.280733-64.483817l145.088587-16.374605a32.448587 32.448587 0 1 1 7.280734 64.483816" fill="#FFB600" p-id="4589"></path><path d="M621.690128 815.404624a32.448587 32.448587 0 0 0-35.886972-28.606239l-116.876917 13.189872a32.457982 32.457982 0 0 0 7.280733 64.493211l116.867523-13.199266a32.439193 32.439193 0 0 0 28.615633-35.877578" fill="#FFD500" p-id="4590"></path><path d="M546.289908 906.662752a35.886972 35.886972 0 0 1-35.154202-17.887119c-4.791193-8.455046-14.71178-12.616807-24.359926-11.555229-18.272294 2.048-28.935046 22.293138-19.606312 38.122862a87.218495 87.218495 0 0 0 84.80411 42.369174 87.209101 87.209101 0 0 0 73.380404-60.002642c5.636697-17.49255-9.244183-34.891156-27.507083-32.85255-9.657541 1.070972-18.403817 7.327706-21.23156 16.618862a35.849394 35.849394 0 0 1-30.334825 25.196037" fill="#F4731C" p-id="4591"></path><path d="M588.875156 867.713174c-5.702459 2.855927-10.362128 7.534385-12.259817 13.762936a35.849394 35.849394 0 0 1-46.239706 23.36411 35.323303 35.323303 0 0 1-7.703486 1.831927 35.886972 35.886972 0 0 1-35.144808-17.896514 22.358899 22.358899 0 0 0-9.469651-8.765064c-12.56044 6.369468-18.591706 22.264954-10.88822 35.323303a87.246679 87.246679 0 0 0 63.516183 41.937027 87.133945 87.133945 0 0 0 71.059964-59.561101c3.983266-12.37255-2.386202-24.566606-12.870459-29.996624" fill="#FF781D" p-id="4592"></path><path d="M507.593982 500.745394a30.438165 30.438165 0 0 1-30.438165-30.438165v-115.552293a30.438165 30.438165 0 1 1 60.87633 0v115.552293a30.438165 30.438165 0 0 1-30.438165 30.438165M538.022752 546.383853a30.419376 30.419376 0 1 1-60.857541-0.018789 30.419376 30.419376 0 0 1 60.848147 0.009395" fill="#FFFFFF" p-id="4593"></path><path d="M109.445872 208.022312a11.310972 11.310972 0 0 1-11.320367-11.310973V170.979817a11.310972 11.310972 0 1 1 22.621945 0v25.722128c0 6.247339-5.063633 11.310972-11.310973 11.310972M109.445872 272.816147a11.310972 11.310972 0 0 1-11.320367-11.301578v-25.722129a11.310972 11.310972 0 1 1 22.621945 0v25.722129c0 6.247339-5.063633 11.310972-11.310973 11.310972M101.206899 216.25189c0 6.247339-5.063633 11.310972-11.310972 11.310972H64.173798a11.310972 11.310972 0 1 1 0-22.621945H89.905321c6.247339 0 11.310972 5.063633 11.310973 11.310973M166.010128 216.25189c0 6.247339-5.063633 11.310972-11.310972 11.310972H128.986422a11.310972 11.310972 0 1 1 0-22.621945h25.722128c6.247339 0 11.310972 5.063633 11.310973 11.310973" fill="#7BD721" p-id="4594"></path><path d="M358.099376 216.25189a15.256661 15.256661 0 1 1-30.513321 0 15.256661 15.256661 0 0 1 30.513321 0M890.786055 752.593028a15.256661 15.256661 0 1 1-30.513321 0 15.256661 15.256661 0 0 1 30.513321 0" fill="#5C3290" p-id="4595"></path><path d="M869.047193 917.654312a16.975853 16.975853 0 1 1 0-33.951706 16.975853 16.975853 0 0 1 0 33.951706m0-49.377468a32.401615 32.401615 0 1 0 0 64.793835 32.401615 32.401615 0 0 0 0-64.793835" fill="#00B1FF" p-id="4596"></path></svg>