<?xml version="1.0" standalone="no"?><!DOCTYPE svg PUBLIC "-//W3C//DTD SVG 1.1//EN" "http://www.w3.org/Graphics/SVG/1.1/DTD/svg11.dtd"><svg t="1648803517397" class="icon" viewBox="0 0 1024 1024" version="1.1" xmlns="http://www.w3.org/2000/svg" p-id="4111" xmlns:xlink="http://www.w3.org/1999/xlink" width="200" height="200"><defs><style type="text/css">@font-face { font-family: feedback-iconfont; src: url("//at.alicdn.com/t/font_1031158_u69w8yhxdu.woff2?t=1630033759944") format("woff2"), url("//at.alicdn.com/t/font_1031158_u69w8yhxdu.woff?t=1630033759944") format("woff"), url("//at.alicdn.com/t/font_1031158_u69w8yhxdu.ttf?t=1630033759944") format("truetype"); }
</style></defs><path d="M871.273688 512.225468c0 220.582752-178.82422 399.416367-399.416367 399.416367-220.582752 0-399.406972-178.82422-399.406972-399.416367 0-220.592147 178.82422-399.416367 399.406972-399.416367 220.592147 0 399.416367 178.82422 399.416367 399.416367" fill="#F5F0FF" p-id="4112"></path><path d="M185.785541 190.360661a11.310972 11.310972 0 0 1-11.310972-11.310973V153.318165a11.310972 11.310972 0 1 1 22.621945 0v25.722129c0 6.247339-5.063633 11.310972-11.310973 11.310972M185.785541 255.16389a11.310972 11.310972 0 0 1-11.310972-11.310973V218.140183a11.310972 11.310972 0 1 1 22.621945 0v25.722129c0 6.247339-5.063633 11.310972-11.310973 11.310972M177.555963 198.590239c0 6.247339-5.063633 11.310972-11.310972 11.310972h-25.722129a11.310972 11.310972 0 1 1 0-22.621945h25.722129c6.247339 0 11.310972 5.063633 11.310972 11.310973M242.368587 198.590239c0 6.247339-5.073028 11.310972-11.310972 11.310972h-25.722129a11.310972 11.310972 0 1 1 0-22.621945h25.722129c6.247339 0 11.310972 5.063633 11.310972 11.310973" fill="#7BD721" p-id="4113"></path><path d="M313.344 168.87545a15.256661 15.256661 0 1 1-29.113541-9.13145 15.256661 15.256661 0 0 1 29.113541 9.13145M199.003596 431.996477a15.266055 15.266055 0 1 1-26.43611 15.266055 15.266055 15.266055 0 0 1 26.43611-15.266055" fill="#5C3290" p-id="4114"></path><path d="M109.746495 334.19978a16.975853 16.975853 0 1 1 0-33.942312 16.975853 16.975853 0 0 1 0 33.942312m0-49.377468a32.401615 32.401615 0 1 0 0 64.803229 32.401615 32.401615 0 0 0 0-64.803229" fill="#00B1FF" p-id="4115"></path><path d="M633.001101 175.460991a35.783633 35.783633 0 0 1 0 50.598752L437.89622 421.155229a35.764844 35.764844 0 0 1-50.598752 0 35.764844 35.764844 0 0 1 0-50.598752l195.086092-195.086092a35.783633 35.783633 0 0 1 50.598752 0" fill="#F4731C" p-id="4116"></path><path d="M582.392954 175.460991L387.306862 370.547083a35.774239 35.774239 0 0 0-7.844403 38.799266 35.793028 35.793028 0 0 0 38.799266-7.853799l195.076697-195.086091a35.793028 35.793028 0 0 0 7.844404-38.789872 35.793028 35.793028 0 0 0-38.789872 7.844404" fill="#FF781D" p-id="4117"></path><path d="M861.287339 916.545761H425.664587c-76.546349 0-138.606385-62.050642-138.606385-138.606385V480.932404c0-76.546349 62.060037-138.606385 138.606385-138.606386h435.622752c76.536954 0 138.596991 62.060037 138.596991 138.606386v297.006972c0 76.555743-62.060037 138.606385-138.606385 138.606385" fill="#0091F1" p-id="4118"></path><path d="M920.679339 777.939376V480.932404c0-76.546349-62.060037-138.606385-138.606385-138.606386H425.664587c-76.546349 0-138.606385 62.060037-138.606385 138.606386v297.006972c0 76.546349 62.060037 138.606385 138.606385 138.606385h356.408367c76.546349 0 138.606385-62.060037 138.606385-138.606385" fill="#00B1FF" p-id="4119"></path><path d="M533.522789 623.287193c0 51.801248-41.993394 93.794642-93.794642 93.794642s-93.794642-41.993394-93.794642-93.794642 41.993394-93.794642 93.794642-93.794643 93.794642 41.993394 93.794642 93.794643M643.100183 576.878385a29.292037 29.292037 0 1 1-58.574678-0.009394 29.292037 29.292037 0 0 1 58.574678 0.009394M823.333578 606.161028H718.209174a29.282642 29.282642 0 1 1 0-58.565285h105.124404a29.282642 29.282642 0 1 1 0 58.565285M643.100183 669.686606a29.292037 29.292037 0 1 1-58.574678-0.009395 29.292037 29.292037 0 0 1 58.574678 0.009395M823.333578 698.969248H718.209174a29.282642 29.282642 0 1 1 0-58.565285h105.124404a29.282642 29.282642 0 1 1 0 58.565285" fill="#FFFFFF" p-id="4120"></path></svg>