<?xml version="1.0" standalone="no"?><!DOCTYPE svg PUBLIC "-//W3C//DTD SVG 1.1//EN" "http://www.w3.org/Graphics/SVG/1.1/DTD/svg11.dtd"><svg t="1648803554157" class="icon" viewBox="0 0 1024 1024" version="1.1" xmlns="http://www.w3.org/2000/svg" p-id="5379" xmlns:xlink="http://www.w3.org/1999/xlink" width="200" height="200"><defs><style type="text/css">@font-face { font-family: feedback-iconfont; src: url("//at.alicdn.com/t/font_1031158_u69w8yhxdu.woff2?t=1630033759944") format("woff2"), url("//at.alicdn.com/t/font_1031158_u69w8yhxdu.woff?t=1630033759944") format("woff"), url("//at.alicdn.com/t/font_1031158_u69w8yhxdu.ttf?t=1630033759944") format("truetype"); }
</style></defs><path d="M851.329174 510.525064c0 220.582752-178.82422 399.416367-399.416367 399.416367-220.582752 0-399.406972-178.82422-399.406972-399.416367 0-220.592147 178.82422-399.416367 399.406972-399.416367S851.329174 289.932917 851.329174 510.525064" fill="#F5F0FF" p-id="5380"></path><path d="M180.064294 205.156991a11.310972 11.310972 0 0 1-11.310973-11.310973v-25.722128a11.310972 11.310972 0 1 1 22.621945 0v25.722128c0 6.247339-5.073028 11.310972-11.310972 11.310973M180.064294 269.96022a11.310972 11.310972 0 0 1-11.310973-11.310972v-25.722129a11.310972 11.310972 0 1 1 22.621945 0v25.722129c0 6.247339-5.073028 11.310972-11.310972 11.310972M171.825321 213.386569c0 6.247339-5.054239 11.310972-11.301578 11.310972h-25.722128a11.310972 11.310972 0 1 1 0-22.621945h25.722128c6.247339 0 11.310972 5.073028 11.310973 11.310973M236.637945 213.386569c0 6.247339-5.073028 11.310972-11.310973 11.310972h-25.722128a11.310972 11.310972 0 1 1 0-22.621945h25.722128c6.247339 0 11.310972 5.073028 11.310973 11.310973" fill="#7BD721" p-id="5381"></path><path d="M307.613358 183.67178a15.256661 15.256661 0 1 1-29.113541-9.13145 15.256661 15.256661 0 0 1 29.113541 9.13145M193.272954 446.802202a15.266055 15.266055 0 1 1-26.43611 15.25666 15.266055 15.266055 0 0 1 26.43611-15.25666" fill="#5C3290" p-id="5382"></path><path d="M104.015853 349.005505a16.975853 16.975853 0 1 1 0-33.951707 16.975853 16.975853 0 0 1 0 33.951707m0-49.377468a32.401615 32.401615 0 1 0 0 64.793835 32.401615 32.401615 0 0 0 0-64.793835" fill="#00B1FF" p-id="5383"></path><path d="M601.341651 413.122936a35.783633 35.783633 0 0 1-50.598752 0l-121.001101-120.991707a35.783633 35.783633 0 0 1 50.598752-50.598752l121.001101 121.001101a35.783633 35.783633 0 0 1 0 50.589358" fill="#F4731C" p-id="5384"></path><path d="M593.469064 418.90055a35.680294 35.680294 0 0 0-5.777614-42.726165l-121.001101-120.991706c-11.574018-11.583413-29.075963-13.415339-42.707377-5.777615-7.637725 13.631413-5.805798 31.133358 5.777615 42.716771l120.991707 121.001101a35.680294 35.680294 0 0 0 42.71677 5.76822" fill="#FF781D" p-id="5385"></path><path d="M855.660037 241.532477a35.783633 35.783633 0 0 1 0 50.598752l-120.991707 121.001101a35.783633 35.783633 0 0 1-50.598752-50.598752l120.991706-121.001101a35.783633 35.783633 0 0 1 50.598753 0" fill="#F4731C" p-id="5386"></path><path d="M847.778055 235.754862a35.680294 35.680294 0 0 0-42.716771 5.777615L684.069578 362.533578c-11.583413 11.574018-13.415339 29.075963-5.777615 42.707376 13.631413 7.637725 31.133358 5.805798 42.716771-5.777615l120.991706-120.991706a35.680294 35.680294 0 0 0 5.777615-42.716771" fill="#FF781D" p-id="5387"></path><path d="M860.507596 909.932037H424.894239c-76.546349 0-138.606385-62.050642-138.606386-138.606386V474.328073c0-76.546349 62.060037-138.606385 138.606386-138.606385h435.622752c76.536954 0 138.596991 62.060037 138.596991 138.606385v297.006973c0 76.565138-62.060037 138.606385-138.606386 138.606385" fill="#FFB600" p-id="5388"></path><path d="M919.908991 771.325651V474.328073c0-76.546349-62.050642-138.606385-138.596991-138.606385H424.903633c-76.546349 0-138.606385 62.060037-138.606385 138.606385v297.006973c0 76.546349 62.060037 138.606385 138.606385 138.606385h356.408367c76.546349 0 138.606385-62.060037 138.606385-138.606385" fill="#FFD500" p-id="5389"></path><path d="M689.368073 582.674789L563.2 509.839266c-30.90789-17.849541-69.528661 4.452991-69.528661 40.142679V695.662385c0 35.699083 38.630165 57.99222 69.538055 40.152074L689.368073 662.969541c30.90789-17.840147 30.90789-62.454606 0-80.294752" fill="#FFFFFF" p-id="5390"></path></svg>