<?xml version="1.0" standalone="no"?><!DOCTYPE svg PUBLIC "-//W3C//DTD SVG 1.1//EN" "http://www.w3.org/Graphics/SVG/1.1/DTD/svg11.dtd"><svg t="1648804008655" class="icon" viewBox="0 0 1024 1024" version="1.1" xmlns="http://www.w3.org/2000/svg" p-id="1334" xmlns:xlink="http://www.w3.org/1999/xlink" width="200" height="200"><defs><style type="text/css">@font-face { font-family: feedback-iconfont; src: url("//at.alicdn.com/t/font_1031158_u69w8yhxdu.woff2?t=1630033759944") format("woff2"), url("//at.alicdn.com/t/font_1031158_u69w8yhxdu.woff?t=1630033759944") format("woff"), url("//at.alicdn.com/t/font_1031158_u69w8yhxdu.ttf?t=1630033759944") format("truetype"); }
</style></defs><path d="M833.479633 524.071927c0 220.592147-178.833615 399.416367-399.425761 399.416367-220.582752 0-399.406972-178.82422-399.406973-399.416367 0-220.582752 178.82422-399.416367 399.406973-399.416367 220.592147 0 399.416367 178.82422 399.416367 399.416367" fill="#F5F0FF" p-id="1335"></path><path d="M58.894092 444.904514a11.310972 11.310972 0 0 1-11.310973-11.310973v-25.722128a11.310972 11.310972 0 1 1 22.621945 0v25.722128c0 6.247339-5.073028 11.310972-11.310972 11.310973M58.894092 509.707743a11.310972 11.310972 0 0 1-11.310973-11.310972v-25.722129a11.310972 11.310972 0 1 1 22.621945 0v25.722129c0 6.247339-5.073028 11.310972-11.310972 11.310972M50.664514 453.134092c0 6.247339-5.073028 11.310972-11.310973 11.310972H13.622018a11.310972 11.310972 0 1 1 0-22.621945h25.722129c6.247339 0 11.310972 5.063633 11.310972 11.310973M115.458349 453.134092c0 6.247339-5.054239 11.310972-11.301578 11.310972H78.434642a11.310972 11.310972 0 1 1 0-22.621945h25.722129c6.247339 0 11.310972 5.063633 11.310972 11.310973" fill="#7BD721" p-id="1336"></path><path d="M145.483156 334.002495a15.256661 15.256661 0 1 1-30.503927 0 15.256661 15.256661 0 0 1 30.503927 0" fill="#5C3290" p-id="1337"></path><path d="M145.483156 652.37255a16.975853 16.975853 0 1 1 0-33.951706 16.975853 16.975853 0 0 1 0 33.951706m0-49.377467a32.401615 32.401615 0 1 0 0 64.803229 32.401615 32.401615 0 0 0 0-64.803229" fill="#00B1FF" p-id="1338"></path><path d="M736.481468 908.20345h-390.811009a76.104807 76.104807 0 0 1-76.095413-76.114202V309.633174a76.114202 76.114202 0 0 1 76.095413-76.114202h390.811009a76.123596 76.123596 0 0 1 76.114202 76.114202v522.456074a76.114202 76.114202 0 0 1-76.114202 76.114202" fill="#0091F1" p-id="1339"></path><path d="M747.651523 832.089248V309.642569a76.114202 76.114202 0 0 0-76.114202-76.114202H345.679853a76.114202 76.114202 0 0 0-76.114202 76.114202v522.456073a76.123596 76.123596 0 0 0 76.114202 76.114202h325.857468a76.114202 76.114202 0 0 0 76.114202-76.114202" fill="#00B1FF" p-id="1340"></path><path d="M963.800073 420.469431L812.248073 302.878532c0.197284 2.226495 0.347596 4.47178 0.347597 6.764037v429.854532l164.685504-212.24044a76.104807 76.104807 0 0 0-13.481101-106.78723" fill="#FFB600" p-id="1341"></path><path d="M894.130495 420.469431l-81.54422-63.262532v292.497615L907.602202 527.256661a76.104807 76.104807 0 0 0-13.471707-106.78723" fill="#FFD500" p-id="1342"></path><path d="M653.706569 420.535193a32.598899 32.598899 0 0 1-32.598899 32.598899H396.10011a32.598899 32.598899 0 0 1 0-65.197798h225.00756a32.598899 32.598899 0 0 1 32.598899 32.598899M653.706569 555.590459a32.598899 32.598899 0 0 1-32.598899 32.598899H396.10011a32.598899 32.598899 0 0 1 0-65.197798h225.00756a32.598899 32.598899 0 0 1 32.598899 32.598899M653.706569 687.771009a32.598899 32.598899 0 0 1-32.598899 32.598899H396.10011a32.598899 32.598899 0 0 1 0-65.197798h225.00756a32.598899 32.598899 0 0 1 32.598899 32.598899" fill="#FFFFFF" p-id="1343"></path></svg>