<?xml version="1.0" standalone="no"?><!DOCTYPE svg PUBLIC "-//W3C//DTD SVG 1.1//EN" "http://www.w3.org/Graphics/SVG/1.1/DTD/svg11.dtd"><svg t="1648803545330" class="icon" viewBox="0 0 1024 1024" version="1.1" xmlns="http://www.w3.org/2000/svg" p-id="5062" xmlns:xlink="http://www.w3.org/1999/xlink" width="200" height="200"><defs><style type="text/css">@font-face { font-family: feedback-iconfont; src: url("//at.alicdn.com/t/font_1031158_u69w8yhxdu.woff2?t=1630033759944") format("woff2"), url("//at.alicdn.com/t/font_1031158_u69w8yhxdu.woff?t=1630033759944") format("woff"), url("//at.alicdn.com/t/font_1031158_u69w8yhxdu.ttf?t=1630033759944") format("truetype"); }
</style></defs><path d="M877.577394 510.083523c0 220.592147-178.82422 399.416367-399.416366 399.416367-220.582752 0-399.406972-178.82422-399.406973-399.416367 0-220.582752 178.82422-399.416367 399.406973-399.416367s399.416367 178.82422 399.416366 399.416367" fill="#F5F0FF" p-id="5063"></path><path d="M828.50055 90.234128a11.310972 11.310972 0 0 1-11.310972-11.310972V53.201028a11.310972 11.310972 0 1 1 22.621945 0v25.722128c0 6.247339-5.063633 11.310972-11.310973 11.310972M828.50055 155.037358a11.310972 11.310972 0 0 1-11.310972-11.310973v-25.722128a11.310972 11.310972 0 1 1 22.621945 0V143.73578c0 6.247339-5.063633 11.310972-11.310973 11.310972M820.270972 98.463706c0 6.247339-5.063633 11.310972-11.310972 11.310973h-25.722128a11.310972 11.310972 0 1 1 0-22.621945h25.722128c6.247339 0 11.310972 5.073028 11.310972 11.310972M885.074202 98.463706c0 6.247339-5.063633 11.310972-11.310973 11.310973H848.041101a11.310972 11.310972 0 1 1 0-22.621945h25.722128c6.247339 0 11.310972 5.073028 11.310973 11.310972" fill="#7BD721" p-id="5064"></path><path d="M87.077578 234.298716a15.256661 15.256661 0 1 1-30.513321 0 15.256661 15.256661 0 0 1 30.513321 0" fill="#5C3290" p-id="5065"></path><path d="M47.705248 462.913761a16.975853 16.975853 0 1 1 0-33.951706 16.975853 16.975853 0 0 1 0 33.951706m0-49.377467a32.401615 32.401615 0 1 0 0 64.793834 32.401615 32.401615 0 0 0 0-64.793834" fill="#00B1FF" p-id="5066"></path><path d="M902.933138 615.245505c0 174.493358-141.452917 315.936881-315.936881 315.93688-174.493358 0-315.946275-141.443523-315.946275-315.93688 0-174.493358 141.452917-315.936881 315.93688-315.936881 174.493358 0 315.936881 141.443523 315.936881 315.936881" fill="#0091F1" p-id="5067"></path><path d="M550.461064 301.469358c-157.273248 18.131376-279.411083 151.645945-279.411082 313.776147 0 162.120807 122.12844 295.654165 279.411082 313.776146 157.263853-18.121982 279.411083-151.655339 279.411083-313.776146 0-162.130202-122.137835-295.644771-279.411083-313.776147" fill="#00B1FF" p-id="5068"></path><path d="M946.796037 274.469578c-42.829505-42.829505-107.867596-49.90356-158.034202-21.222165-15.651229 8.94356-18.788991 30.184514-6.040661 42.932844l142.364184 142.364183c12.74833 12.74833 33.989284 9.610569 42.932844-6.04066 28.681394-50.166606 21.607339-115.204697-21.222165-158.034202" fill="#FFB600" p-id="5069"></path><path d="M938.049761 402.535339a131.504147 131.504147 0 0 0-7.468623-141.819302 131.504147 131.504147 0 0 0-141.819303-7.468624c-15.651229 8.94356-18.788991 30.184514-6.040661 42.932844l112.395743 112.395743c12.738936 12.74833 33.989284 9.610569 42.932844-6.040661" fill="#FFD500" p-id="5070"></path><path d="M227.177688 279.204404c42.838899-42.829505 107.867596-49.90356 158.034202-21.222165 15.651229 8.94356 18.788991 30.184514 6.04066 42.932844L248.888367 443.279266c-12.74833 12.74833-33.989284 9.610569-42.932844-6.04066-28.681394-50.166606-21.607339-115.204697 21.23156-158.034202" fill="#FFB600" p-id="5071"></path><path d="M235.923963 407.270165a131.504147 131.504147 0 0 1 7.468624-141.819303 131.504147 131.504147 0 0 1 141.819303-7.468623c15.651229 8.94356 18.788991 30.184514 6.04066 42.932844L278.856807 413.310826c-12.738936 12.74833-33.989284 9.610569-42.932844-6.040661" fill="#FFD500" p-id="5072"></path><path d="M550.461064 426.040367a40.565431 40.565431 0 0 1 40.565431 40.556037V615.245505a40.556037 40.556037 0 0 1-81.130862 0V466.596404a40.565431 40.565431 0 0 1 40.565431-40.565432" fill="#FFFFFF" p-id="5073"></path><path d="M509.895633 615.245505a40.565431 40.565431 0 0 1 40.565431-40.565432h93.569175a40.556037 40.556037 0 0 1 0 81.130863h-93.569175a40.565431 40.565431 0 0 1-40.565431-40.565431" fill="#FFFFFF" p-id="5074"></path></svg>