<?xml version="1.0" standalone="no"?><!DOCTYPE svg PUBLIC "-//W3C//DTD SVG 1.1//EN" "http://www.w3.org/Graphics/SVG/1.1/DTD/svg11.dtd"><svg t="1648803525918" class="icon" viewBox="0 0 1024 1024" version="1.1" xmlns="http://www.w3.org/2000/svg" p-id="4424" xmlns:xlink="http://www.w3.org/1999/xlink" width="200" height="200"><defs><style type="text/css">@font-face { font-family: feedback-iconfont; src: url("//at.alicdn.com/t/font_1031158_u69w8yhxdu.woff2?t=1630033759944") format("woff2"), url("//at.alicdn.com/t/font_1031158_u69w8yhxdu.woff?t=1630033759944") format("woff"), url("//at.alicdn.com/t/font_1031158_u69w8yhxdu.ttf?t=1630033759944") format("truetype"); }
</style></defs><path d="M831.281321 528.928881c0 220.582752-178.82422 399.416367-399.416367 399.416367-220.582752 0-399.406972-178.82422-399.406972-399.416367 0-220.592147 178.82422-399.416367 399.406972-399.416367S831.281321 308.327339 831.281321 528.928881" fill="#F5F0FF" p-id="4425"></path><path d="M591.965945 513.67222h-84.024367l84.024367-160.223119h84.024367z" fill="#F4731C" p-id="4426"></path><path d="M675.980917 513.67222H760.014679l-84.024367-160.223119h-84.024367z" fill="#F4731C" p-id="4427"></path><path d="M633.978128 344.90011a56.038165 56.038165 0 1 1 0-112.085725 56.038165 56.038165 0 0 1 0 112.076331m0-168.105101c-61.909725 0-112.07633 50.166606-112.07633 112.07633 0 61.90033 50.166606 112.07633 112.07633 112.07633 61.90033 0 112.07633-50.176 112.076331-112.07633 0-61.909725-50.176-112.07633-112.076331-112.07633" fill="#0091F1" p-id="4428"></path><path d="M633.978128 344.90011a56.038165 56.038165 0 1 1 0-112.085725 56.038165 56.038165 0 0 1 0 112.076331m0-168.105101c-61.909725 0-112.07633 50.166606-112.07633 112.07633 0 61.90033 50.166606 112.07633 112.07633 112.07633 61.90033 0 112.07633-50.176 112.076331-112.07633 0-61.909725-50.176-112.07633-112.076331-112.07633" fill="#0091F1" p-id="4429"></path><path d="M633.978128 344.90011a56.038165 56.038165 0 1 1 0-112.085725 56.038165 56.038165 0 0 1 0 112.076331m-19.26811-166.338936c-52.703119 9.150239-92.817615 54.995376-92.817614 110.310165 0 55.314789 40.114495 101.159927 92.817614 110.310165 52.703119-9.150239 92.817615-54.995376 92.817615-110.310165 0-55.314789-40.114495-101.159927-92.817615-110.310165" fill="#00B1FF" p-id="4430"></path><path d="M916.733651 473.764404H351.222606a66.794862 66.794862 0 0 0-66.794863 66.794862v321.000514a66.794862 66.794862 0 0 0 66.794863 66.785468h565.511045a66.794862 66.794862 0 0 0 66.785468-66.794863V540.559266a66.794862 66.794862 0 0 0-66.794862-66.794862" fill="#FFB600" p-id="4431"></path><path d="M911.294239 861.55978v-321.009908a66.794862 66.794862 0 0 0-66.785468-66.776074H351.222606a66.794862 66.794862 0 0 0-66.785468 66.785468v321.000514a66.794862 66.794862 0 0 0 66.785468 66.785468h493.286165a66.794862 66.794862 0 0 0 66.785468-66.794863" fill="#FFD500" p-id="4432"></path><path d="M761.949945 569.165505H433.781431a38.752294 38.752294 0 0 0-38.752293 38.752293v186.28345a38.752294 38.752294 0 0 0 38.752293 38.752293h328.168514a38.752294 38.752294 0 0 0 38.752294-38.752293v-186.292844a38.752294 38.752294 0 0 0-38.752294-38.742899" fill="#FFFFFF" p-id="4433"></path><path d="M851.488881 257.183706c6.247339 0 11.310972-5.063633 11.310972-11.310972v-25.722128a11.310972 11.310972 0 1 0-22.621945 0v25.722128c0 6.247339 5.063633 11.310972 11.310973 11.310972M851.488881 321.99633c6.247339 0 11.310972-5.073028 11.310972-11.310972v-25.722129a11.310972 11.310972 0 1 0-22.621945 0v25.722129c0 6.247339 5.063633 11.310972 11.310973 11.310972M859.718459 265.413284c0 6.247339 5.063633 11.310972 11.310972 11.310973h25.722129a11.310972 11.310972 0 1 0 0-22.621945h-25.722129c-6.247339 0-11.310972 5.073028-11.310972 11.310972M794.915229 265.413284c0 6.247339 5.063633 11.310972 11.310973 11.310973h25.722128a11.310972 11.310972 0 1 0 0-22.621945h-25.722128c-6.247339 0-11.310972 5.073028-11.310973 11.310972" fill="#7BD721" p-id="4434"></path><path d="M94.799853 358.296661c6.247339 0 11.310972-5.073028 11.310973-11.310973v-25.722128a11.310972 11.310972 0 1 0-22.621945 0v25.722128c0 6.247339 5.073028 11.310972 11.310972 11.310973M94.799853 423.09989c6.247339 0 11.310972-5.073028 11.310973-11.310973v-25.722128a11.310972 11.310972 0 1 0-22.621945 0v25.722128c0 6.247339 5.073028 11.310972 11.310972 11.310973M103.029431 366.526239c0 6.247339 5.073028 11.310972 11.310973 11.310972h25.722128a11.310972 11.310972 0 1 0 0-22.621945h-25.722128c-6.247339 0-11.310972 5.063633-11.310973 11.310973M38.226202 366.526239c0 6.247339 5.063633 11.310972 11.310972 11.310972h25.722129a11.310972 11.310972 0 1 0 0-22.621945H49.537174c-6.247339 0-11.310972 5.063633-11.310972 11.310973" fill="#FFD500" p-id="4435"></path><path d="M219.248734 252.110679a16.975853 16.975853 0 1 1 33.942312 0 16.975853 16.975853 0 0 1-33.942312 0m-15.425762 0a32.401615 32.401615 0 1 0 64.793835 0 32.401615 32.401615 0 0 0-64.793835 0" fill="#00B1FF" p-id="4436"></path><path d="M79.543193 248.26833a15.256661 15.256661 0 1 0 30.513321 0 15.256661 15.256661 0 0 0-30.513321 0" fill="#5C3290" p-id="4437"></path></svg>